<?xml version="1.0" encoding="UTF-8" standalone="no"?><!DOCTYPE svg PUBLIC "-//W3C//DTD SVG 1.1//EN" "http://www.w3.org/Graphics/SVG/1.1/DTD/svg11.dtd"><svg width="100%" height="100%" viewBox="0 0 600 600" version="1.1" xmlns="http://www.w3.org/2000/svg" xmlns:xlink="http://www.w3.org/1999/xlink" xml:space="preserve" xmlns:serif="http://www.serif.com/" style="fill-rule:evenodd;clip-rule:evenodd;stroke-linecap:round;stroke-linejoin:round;stroke-miterlimit:1.5;"><g><rect x="117.878" y="136.117" width="468.122" height="64" style="fill:#44ed44;stroke:#000;stroke-width:2px;"/><path d="M152.025,76l3.706,-0l-0,54.559l3.705,0l-5.558,5.558l-5.558,-5.558l3.705,0l0,-54.559Z"/></g><g><g><rect x="117.878" y="232" width="468.122" height="64" style="fill:#44ed44;stroke:#000;stroke-width:2px;"/></g><g><rect x="117.878" y="232" width="72" height="64" style="fill:#ed4444;stroke:#000;stroke-width:2px;"/><g transform="matrix(1,0,0,1,138.544,196.514)"><text x="3.753px" y="65.514px" style="font-family:'ArialMT', 'Arial', sans-serif;font-size:12px;">New</text><text x="-10.26px" y="77.907px" style="font-family:'ArialMT', 'Arial', sans-serif;font-size:12px;">Allocation</text></g></g></g><g><g><g><rect x="117.878" y="328" width="468.122" height="64" style="fill:#44ed44;stroke:#000;stroke-width:2px;"/><rect x="117.878" y="328" width="234.061" height="64" style="fill:#44ed44;stroke:#000;stroke-width:2px;"/></g></g><g><rect x="117.878" y="328" width="72" height="64" style="fill:#ed4444;stroke:#000;stroke-width:2px;"/><g transform="matrix(1,0,0,1,138.544,292.514)"><text x="3.753px" y="65.514px" style="font-family:'ArialMT', 'Arial', sans-serif;font-size:12px;">New</text><text x="-10.26px" y="77.907px" style="font-family:'ArialMT', 'Arial', sans-serif;font-size:12px;">Allocation</text></g></g></g><g><g><g><rect x="117.878" y="424" width="468.122" height="64" style="fill:#44ed44;stroke:#000;stroke-width:2px;"/><rect x="117.878" y="424" width="234.061" height="64" style="fill:#44ed44;stroke:#000;stroke-width:2px;"/><rect x="117.878" y="424" width="117.03" height="64" style="fill:#44ed44;stroke:#000;stroke-width:2px;"/></g></g><g><rect x="117.878" y="424" width="72" height="64" style="fill:#ed4444;stroke:#000;stroke-width:2px;"/><g transform="matrix(1,0,0,1,138.544,388.514)"><text x="3.753px" y="65.514px" style="font-family:'ArialMT', 'Arial', sans-serif;font-size:12px;">New</text><text x="-10.26px" y="77.907px" style="font-family:'ArialMT', 'Arial', sans-serif;font-size:12px;">Allocation</text></g></g></g><text x="116.917px" y="130.59px" style="font-family:'ArialMT', 'Arial', sans-serif;font-size:12px;">Head</text><g><rect x="117.878" y="12" width="72" height="64" style="fill:#ed4444;stroke:#000;stroke-width:2px;"/><g transform="matrix(1,0,0,1,138.544,-23.4861)"><text x="3.753px" y="65.514px" style="font-family:'ArialMT', 'Arial', sans-serif;font-size:12px;">New</text><text x="-10.26px" y="77.907px" style="font-family:'ArialMT', 'Arial', sans-serif;font-size:12px;">Allocation</text></g></g><text x="27.109px" y="171.149px" style="font-family:'ArialMT', 'Arial', sans-serif;font-size:12px;">Memory Block</text><text x="27.109px" y="269.59px" style="font-family:'ArialMT', 'Arial', sans-serif;font-size:12px;">Memory Block</text><text x="27.109px" y="363.032px" style="font-family:'ArialMT', 'Arial', sans-serif;font-size:12px;">Memory Block</text><text x="340.042px" y="318.736px" style="font-family:'ArialMT', 'Arial', sans-serif;font-size:12px;">Split</text><text x="223.461px" y="417.736px" style="font-family:'ArialMT', 'Arial', sans-serif;font-size:12px;">Split</text><text x="27.109px" y="459.032px" style="font-family:'ArialMT', 'Arial', sans-serif;font-size:12px;">Memory Block</text><g><g><g><rect x="117.878" y="521" width="468.122" height="64" style="fill:#44ed44;stroke:#000;stroke-width:2px;"/><rect x="117.878" y="521" width="234.061" height="64" style="fill:#44ed44;stroke:#000;stroke-width:2px;"/><rect x="117.878" y="521" width="117.03" height="64" style="fill:#44ed44;stroke:#000;stroke-width:2px;"/><rect x="190" y="521" width="44.909" height="64" style="fill:#edba44;stroke:#000;stroke-width:2px;"/></g></g><g><rect x="117.878" y="521" width="72" height="64" style="fill:#ed4444;stroke:#000;stroke-width:2px;"/><g transform="matrix(1,0,0,1,138.544,485.514)"><text x="3.753px" y="65.514px" style="font-family:'ArialMT', 'Arial', sans-serif;font-size:12px;">New</text><text x="-10.26px" y="77.907px" style="font-family:'ArialMT', 'Arial', sans-serif;font-size:12px;">Allocation</text></g></g></g><g transform="matrix(1,0,0,1,196.741,479.685)"><text x="-2.594px" y="65.514px" style="font-family:'ArialMT', 'Arial', sans-serif;font-size:10px;">Padding</text><text x="9.921px" y="75.842px" style="font-family:'ArialMT', 'Arial', sans-serif;font-size:10px;">for</text><text x="-2.445px" y="86.169px" style="font-family:'ArialMT', 'Arial', sans-serif;font-size:10px;">2</text><text x="3.117px" y="82.839px" style="font-family:'ArialMT', 'Arial', sans-serif;font-size:5.83px;">N</text><text x="8.947px" y="86.169px" style="font-family:'ArialMT', 'Arial', sans-serif;font-size:10px;">Bytes</text></g><text x="27.109px" y="556.032px" style="font-family:'ArialMT', 'Arial', sans-serif;font-size:12px;">Memory Block</text><text x="568.838px" y="130.59px" style="font-family:'ArialMT', 'Arial', sans-serif;font-size:12px;">T<tspan x="574.838px 581.512px " y="130.59px 130.59px ">ai</tspan>l</text></svg>