<?xml version="1.0" encoding="UTF-8" standalone="no"?><!DOCTYPE svg PUBLIC "-//W3C//DTD SVG 1.1//EN" "http://www.w3.org/Graphics/SVG/1.1/DTD/svg11.dtd"><svg width="100%" height="100%" viewBox="0 0 600 150" version="1.1" xmlns="http://www.w3.org/2000/svg" xmlns:xlink="http://www.w3.org/1999/xlink" xml:space="preserve" xmlns:serif="http://www.serif.com/" style="fill-rule:evenodd;clip-rule:evenodd;stroke-linecap:round;stroke-linejoin:round;stroke-miterlimit:1.5;"><g><rect x="117.878" y="23.617" width="468.122" height="64" style="fill:#44ed44;stroke:#000;stroke-width:2px;"/><rect x="212.73" y="23.617" width="62.913" height="64" style="fill:#ed4444;stroke:#000;stroke-width:2px;"/><rect x="116" y="23.617" width="48.594" height="64" style="fill:#ed4444;stroke:#000;stroke-width:2px;"/><path d="M465.264,86.837l3.705,0l0,35.442l3.705,-0l-5.558,5.558l-5.558,-5.558l3.706,-0l-0,-35.442Z"/><path d="M178.705,107.916l-3.705,-0l0,-20.299l3.705,0l0,20.299Z"/><path d="M457.853,107.916l-3.706,-0l0,-14.741l-3.705,0l5.558,-5.558l5.558,5.558l-3.705,0l-0,14.741Z"/><rect x="175" y="104.21" width="281" height="3.705"/><g id="header"><rect x="116" y="23.617" width="14.73" height="64" style="fill:#ed4444;stroke:#000;stroke-width:2px;"/><g transform="matrix(6.12323e-17,-1,1,6.12323e-17,-155.479,234.257)"><text x="158.399px" y="283.068px" style="font-family:'ArialMT', 'Arial', sans-serif;font-size:12px;">Header</text></g></g><g id="header1" serif:id="header"><rect x="198" y="23.617" width="14.73" height="64" style="fill:#ed4444;stroke:#000;stroke-width:2px;"/><g transform="matrix(6.12323e-17,-1,1,6.12323e-17,-73.4786,316.257)"><text x="240.399px" y="283.068px" style="font-family:'ArialMT', 'Arial', sans-serif;font-size:12px;">Header</text></g></g><g id="header2" serif:id="header"><rect x="164.594" y="23.617" width="14.73" height="64" style="fill:#edba44;stroke:#000;stroke-width:2px;"/><g transform="matrix(6.12323e-17,-1,1,6.12323e-17,-106.884,282.852)"><text x="214.335px" y="283.068px" style="font-family:'ArialMT', 'Arial', sans-serif;font-size:12px;">Free</text></g></g><g id="header3" serif:id="header"><rect x="276" y="23.617" width="14.73" height="64" style="fill:#ed4444;stroke:#000;stroke-width:2px;"/><g transform="matrix(6.12323e-17,-1,1,6.12323e-17,4.52142,394.257)"><text x="318.399px" y="283.068px" style="font-family:'ArialMT', 'Arial', sans-serif;font-size:12px;">Header</text></g></g><g id="header4" serif:id="header"><rect x="450" y="23.617" width="14.73" height="64" style="fill:#edba44;stroke:#000;stroke-width:2px;"/><g transform="matrix(6.12323e-17,-1,1,6.12323e-17,178.521,568.257)"><text x="485.737px" y="283.068px" style="font-family:'ArialMT', 'Arial', sans-serif;font-size:12px;">Next Free</text></g></g><g id="header5" serif:id="header"><rect x="164.594" y="23.617" width="14.73" height="64" style="fill:#edba44;stroke:#000;stroke-width:2px;"/><g transform="matrix(6.12323e-17,-1,1,6.12323e-17,-106.884,282.852)"><text x="200.331px" y="283.068px" style="font-family:'ArialMT', 'Arial', sans-serif;font-size:12px;">Next Free</text></g></g></g><text x="158.039px" y="17.427px" style="font-family:'ArialMT', 'Arial', sans-serif;font-size:12px;">Head</text><rect x="352" y="23.617" width="98" height="64" style="fill:#ed4444;stroke:#000;stroke-width:2px;"/><g id="header6" serif:id="header"><rect x="352" y="23.617" width="14.7" height="64" style="fill:#ed4444;stroke:#000;stroke-width:2px;"/><g transform="matrix(6.11066e-17,-1,1,6.13583e-17,80.6788,470.415)"><text x="394.556px" y="282.887px" style="font-family:'ArialMT', 'Arial', sans-serif;font-size:11.975px;">Header</text></g></g><text x="27.109px" y="58.649px" style="font-family:'ArialMT', 'Arial', sans-serif;font-size:12px;">Memory Block</text><text x="457.082px" y="137.359px" style="font-family:'ArialMT', 'Arial', sans-serif;font-size:12px;">T<tspan x="463.082px 469.756px " y="137.359px 137.359px ">ai</tspan>l</text><g><rect x="290.73" y="23.617" width="60.939" height="64" style="fill:#ed4444;stroke:#000;stroke-width:2px;"/><g transform="matrix(1,0,0,1,305.866,-11.869)"><text x="3.753px" y="65.514px" style="font-family:'ArialMT', 'Arial', sans-serif;font-size:12px;">New</text><text x="-10.26px" y="77.907px" style="font-family:'ArialMT', 'Arial', sans-serif;font-size:12px;">Allocation</text></g></g></svg>