<?xml version="1.0" encoding="UTF-8" standalone="no"?><!DOCTYPE svg PUBLIC "-//W3C//DTD SVG 1.1//EN" "http://www.w3.org/Graphics/SVG/1.1/DTD/svg11.dtd"><svg width="100%" height="100%" viewBox="0 0 600 450" version="1.1" xmlns="http://www.w3.org/2000/svg" xmlns:xlink="http://www.w3.org/1999/xlink" xml:space="preserve" xmlns:serif="http://www.serif.com/" style="fill-rule:evenodd;clip-rule:evenodd;stroke-linecap:round;stroke-linejoin:round;stroke-miterlimit:1.5;"><path d="M270.373,67l2.373,2.846l-50.291,41.929l2.373,2.846l-7.828,-0.709l0.71,-7.829l2.373,2.846l50.29,-41.929Z"/><path d="M330,71.72l2.287,-2.916l52.192,40.93l2.286,-2.916l0.944,7.803l-7.803,0.944l2.286,-2.916l-52.192,-40.929Z"/><path d="M407.954,132.848l3.05,2.103l-24.99,36.25l3.051,2.103l-7.731,1.421l-1.421,-7.73l3.051,2.103l24.99,-36.25Z"/><path d="M427.011,135.171l2.887,-2.323l29.116,36.188l2.887,-2.323l-0.846,7.815l-7.815,-0.847l2.887,-2.322l-29.116,-36.188Z"/><path d="M172.954,132.848l3.05,2.103l-24.99,36.25l3.051,2.103l-7.731,1.421l-1.421,-7.73l3.051,2.103l24.99,-36.25Z"/><path d="M192.011,135.171l2.887,-2.323l29.116,36.188l2.887,-2.323l-0.846,7.815l-7.815,-0.847l2.887,-2.322l-29.116,-36.188Z"/><path d="M532.701,292l3.209,1.853l-15.773,27.319l3.209,1.853l-7.593,2.034l-2.034,-7.592l3.209,1.852l15.773,-27.319Z"/><path d="M554.441,293.853l3.209,-1.853l15.773,27.319l3.209,-1.852l-2.035,7.592l-7.592,-2.034l3.209,-1.853l-15.773,-27.319Z"/><path d="M335.982,204.941l3.209,1.853l-15.773,27.319l3.209,1.853l-7.593,2.034l-2.034,-7.593l3.209,1.853l15.773,-27.319Z"/><path d="M357.722,206.794l3.209,-1.853l15.773,27.319l3.209,-1.853l-2.035,7.593l-7.592,-2.034l3.209,-1.853l-15.773,-27.319Z"/><path d="M480.883,204.941l3.209,1.853l-15.773,27.319l3.209,1.853l-7.592,2.034l-2.035,-7.593l3.209,1.853l15.773,-27.319Z"/><path d="M502.623,206.794l3.209,-1.853l15.773,27.319l3.209,-1.853l-2.034,7.593l-7.593,-2.034l3.209,-1.853l-15.773,-27.319Z"/><path d="M268,206.794l3.209,-1.853l15.773,27.319l3.209,-1.853l-2.035,7.593l-7.592,-2.034l3.209,-1.853l-15.773,-27.319Z"/><path d="M122.722,205.667l3.209,-1.852l15.773,27.319l3.209,-1.853l-2.035,7.593l-7.592,-2.035l3.209,-1.852l-15.773,-27.32Z"/><path d="M246.982,204.941l3.209,1.853l-15.773,27.319l3.209,1.853l-7.593,2.034l-2.034,-7.593l3.209,1.853l15.773,-27.319Z"/><path d="M510,376.853l3.209,-1.853l15.773,27.319l3.209,-1.852l-2.035,7.592l-7.592,-2.034l3.209,-1.853l-15.773,-27.319Z"/><path d="M488.982,375l3.209,1.853l-15.773,27.319l3.209,1.853l-7.593,2.034l-2.034,-7.592l3.209,1.852l15.773,-27.319Z"/><path d="M407.954,132.848l3.05,2.103l-24.99,36.25l3.051,2.103l-7.731,1.421l-1.421,-7.73l3.051,2.103l24.99,-36.25Z"/><path d="M427.011,135.171l2.887,-2.323l29.116,36.188l2.887,-2.323l-0.846,7.815l-7.815,-0.847l2.887,-2.322l-29.116,-36.188Z"/><path d="M162.722,295.853l3.209,-1.853l15.773,27.319l3.209,-1.852l-2.035,7.592l-7.592,-2.034l3.209,-1.853l-15.773,-27.319Z"/><path d="M141.704,294l3.209,1.853l-15.773,27.319l3.209,1.853l-7.593,2.034l-2.034,-7.592l3.209,1.852l15.773,-27.319Z"/><path d="M100.982,205.848l3.209,1.852l-15.773,27.32l3.209,1.853l-7.593,2.034l-2.034,-7.593l3.209,1.853l15.773,-27.319Z"/><path d="M100.982,205.848l3.209,1.852l-15.773,27.32l3.209,1.853l-7.593,2.034l-2.034,-7.593l3.209,1.853l15.773,-27.319Z"/><g><rect x="155" y="77.386" width="62.913" height="64" style="fill:#ed4444;stroke:#000;stroke-width:2px;"/><text x="161.589px" y="113.625px" style="font-family:'Arial-BoldMT', 'Arial', sans-serif;font-weight:700;font-size:12px;">16 Bytes</text></g><g><rect x="155" y="77.386" width="62.913" height="64" style="fill:#ed4444;stroke:#000;stroke-width:2px;"/><text x="161.589px" y="113.625px" style="font-family:'Arial-BoldMT', 'Arial', sans-serif;font-weight:700;font-size:12px;">16 Bytes</text></g><g><rect x="123.193" y="238" width="62.913" height="64" style="fill:#ed4444;stroke:#000;stroke-width:2px;"/><text x="133.119px" y="274.239px" style="font-family:'Arial-BoldMT', 'Arial', sans-serif;font-weight:700;font-size:12px;">8 Bytes</text></g><g><rect x="516" y="238" width="62.913" height="64" style="fill:#ed4444;stroke:#000;stroke-width:2px;"/><text x="519.252px" y="274.239px" style="font-family:'Arial-BoldMT', 'Arial', sans-serif;font-weight:700;font-size:12px;">128 Bytes</text></g><g><rect x="390" y="77.386" width="62.913" height="64" style="fill:#ed4444;stroke:#000;stroke-width:2px;"/><text x="396.589px" y="113.625px" style="font-family:'Arial-BoldMT', 'Arial', sans-serif;font-weight:700;font-size:12px;">56 Bytes</text></g><g><rect x="268.544" y="41" width="62.913" height="64" style="fill:#404040;stroke:#000;stroke-width:2px;"/><text x="275.496px" y="76.05px" style="font-family:'Arial-BoldMT', 'Arial', sans-serif;font-weight:700;font-size:12px;fill:#fff;">42 Bytes</text></g><g><rect x="317" y="153.688" width="62.913" height="64" style="fill:#404040;stroke:#000;stroke-width:2px;"/><text x="323.952px" y="188.738px" style="font-family:'Arial-BoldMT', 'Arial', sans-serif;font-weight:700;font-size:12px;fill:#fff;">48 Bytes</text></g><g><rect x="463" y="153.688" width="62.913" height="64" style="fill:#404040;stroke:#000;stroke-width:2px;"/><text x="469.952px" y="188.738px" style="font-family:'Arial-BoldMT', 'Arial', sans-serif;font-weight:700;font-size:12px;fill:#fff;">64 Bytes</text></g><g><rect x="468.374" y="326" width="62.913" height="64" style="fill:#404040;stroke:#000;stroke-width:2px;"/><text x="471.99px" y="361.05px" style="font-family:'Arial-BoldMT', 'Arial', sans-serif;font-weight:700;font-size:12px;fill:#fff;">100 Bytes</text></g><g><rect x="82" y="153.688" width="62.913" height="64" style="fill:#404040;stroke:#000;stroke-width:2px;"/><text x="92.289px" y="188.738px" style="font-family:'Arial-BoldMT', 'Arial', sans-serif;font-weight:700;font-size:12px;fill:#fff;">8 Bytes</text></g><g><rect x="228" y="153.688" width="62.913" height="64" style="fill:#404040;stroke:#000;stroke-width:2px;"/><text x="234.952px" y="188.738px" style="font-family:'Arial-BoldMT', 'Arial', sans-serif;font-weight:700;font-size:12px;fill:#fff;">32 Bytes</text></g></svg>