<?xml version="1.0" encoding="UTF-8" standalone="no"?><!DOCTYPE svg PUBLIC "-//W3C//DTD SVG 1.1//EN" "http://www.w3.org/Graphics/SVG/1.1/DTD/svg11.dtd"><svg width="100%" height="100%" viewBox="0 0 600 400" version="1.1" xmlns="http://www.w3.org/2000/svg" xmlns:xlink="http://www.w3.org/1999/xlink" xml:space="preserve" xmlns:serif="http://www.serif.com/" style="fill-rule:evenodd;clip-rule:evenodd;stroke-linecap:round;stroke-linejoin:round;stroke-miterlimit:1.5;"><g><g><rect x="117.878" y="23.617" width="468.122" height="64" style="fill:#44ed44;stroke:#000;stroke-width:2px;"/><rect x="212.73" y="23.617" width="62.913" height="64" style="fill:#ed4444;stroke:#000;stroke-width:2px;"/><rect x="116" y="23.617" width="48.594" height="64" style="fill:#ed4444;stroke:#000;stroke-width:2px;"/><path d="M465.264,86.837l3.705,0l0,35.442l3.705,-0l-5.558,5.558l-5.558,-5.558l3.706,-0l-0,-35.442Z"/><path d="M178.705,107.916l-3.705,-0l0,-20.299l3.705,0l0,20.299Z"/><path d="M457.853,107.916l-3.706,-0l0,-14.741l-3.705,0l5.558,-5.558l5.558,5.558l-3.705,0l-0,14.741Z"/><rect x="175" y="104.21" width="281" height="3.705"/><g id="header"><rect x="116" y="23.617" width="14.73" height="64" style="fill:#ed4444;stroke:#000;stroke-width:2px;"/><g transform="matrix(6.12323e-17,-1,1,6.12323e-17,-155.479,234.257)"><text x="158.399px" y="283.068px" style="font-family:'ArialMT', 'Arial', sans-serif;font-size:12px;">Header</text></g></g><g id="header1" serif:id="header"><rect x="198" y="23.617" width="14.73" height="64" style="fill:#ed4444;stroke:#000;stroke-width:2px;"/><g transform="matrix(6.12323e-17,-1,1,6.12323e-17,-73.4786,316.257)"><text x="240.399px" y="283.068px" style="font-family:'ArialMT', 'Arial', sans-serif;font-size:12px;">Header</text></g></g><g id="header2" serif:id="header"><rect x="164.594" y="23.617" width="14.73" height="64" style="fill:#edba44;stroke:#000;stroke-width:2px;"/><g transform="matrix(6.12323e-17,-1,1,6.12323e-17,-106.884,282.852)"><text x="214.335px" y="283.068px" style="font-family:'ArialMT', 'Arial', sans-serif;font-size:12px;">Free</text></g></g><g id="header3" serif:id="header"><rect x="276" y="23.617" width="14.73" height="64" style="fill:#ed4444;stroke:#000;stroke-width:2px;"/><g transform="matrix(6.12323e-17,-1,1,6.12323e-17,4.52142,394.257)"><text x="318.399px" y="283.068px" style="font-family:'ArialMT', 'Arial', sans-serif;font-size:12px;">Header</text></g></g><g id="header4" serif:id="header"><rect x="450" y="23.617" width="14.73" height="64" style="fill:#edba44;stroke:#000;stroke-width:2px;"/><g transform="matrix(6.12323e-17,-1,1,6.12323e-17,178.521,568.257)"><text x="485.737px" y="283.068px" style="font-family:'ArialMT', 'Arial', sans-serif;font-size:12px;">Next Free</text></g></g><g id="header5" serif:id="header"><rect x="164.594" y="23.617" width="14.73" height="64" style="fill:#edba44;stroke:#000;stroke-width:2px;"/><g transform="matrix(6.12323e-17,-1,1,6.12323e-17,-106.884,282.852)"><text x="200.331px" y="283.068px" style="font-family:'ArialMT', 'Arial', sans-serif;font-size:12px;">Next Free</text></g></g></g><text x="158.039px" y="17.427px" style="font-family:'ArialMT', 'Arial', sans-serif;font-size:12px;">Head</text><rect x="352" y="23.617" width="98" height="64" style="fill:#44b1ed;stroke:#000;stroke-width:2px;"/><g id="header6" serif:id="header"><rect x="352" y="23.617" width="14.7" height="64" style="fill:#44b1ed;stroke:#000;stroke-width:2px;"/><g transform="matrix(6.11066e-17,-1,1,6.13583e-17,80.6788,470.415)"><text x="394.556px" y="282.887px" style="font-family:'ArialMT', 'Arial', sans-serif;font-size:11.975px;">Header</text></g></g><text x="27.109px" y="58.649px" style="font-family:'ArialMT', 'Arial', sans-serif;font-size:12px;">Memory Block</text><text x="457.082px" y="137.359px" style="font-family:'ArialMT', 'Arial', sans-serif;font-size:12px;">T<tspan x="463.082px 469.756px " y="137.359px 137.359px ">ai</tspan>l</text><g><rect x="291" y="23.617" width="60.939" height="64" style="fill:#ed4444;stroke:#000;stroke-width:2px;"/><g transform="matrix(1,0,0,1,394.278,-18.0653)"><text x="-10.26px" y="65.514px" style="font-family:'ArialMT', 'Arial', sans-serif;font-size:12px;">Allocation</text><text x="9.419px" y="77.907px" style="font-family:'ArialMT', 'Arial', sans-serif;font-size:12px;">T<tspan x="15.419px " y="77.907px ">o</tspan></text><text x="3.419px" y="90.3px" style="font-family:'ArialMT', 'Arial', sans-serif;font-size:12px;">Free</text></g><g transform="matrix(1,0,0,1,394.278,-18.0653)"><text x="-10.26px" y="65.514px" style="font-family:'ArialMT', 'Arial', sans-serif;font-size:12px;">Allocation</text><text x="9.419px" y="77.907px" style="font-family:'ArialMT', 'Arial', sans-serif;font-size:12px;">T<tspan x="15.419px " y="77.907px ">o</tspan></text><text x="3.419px" y="90.3px" style="font-family:'ArialMT', 'Arial', sans-serif;font-size:12px;">Free</text></g></g></g><g><g><rect x="117.878" y="152.28" width="468.122" height="64" style="fill:#44ed44;stroke:#000;stroke-width:2px;"/><rect x="212.73" y="152.28" width="62.913" height="64" style="fill:#ed4444;stroke:#000;stroke-width:2px;"/><rect x="116" y="152.28" width="48.594" height="64" style="fill:#ed4444;stroke:#000;stroke-width:2px;"/><path d="M465.264,215.5l3.705,0l0,35.442l3.705,-0l-5.558,5.558l-5.558,-5.558l3.706,-0l-0,-35.442Z"/><path d="M178.705,236.579l-3.705,-0l0,-20.299l3.705,0l0,20.299Z"/><path d="M366.7,236.579l-3.705,-0l-0,-20.299l3.705,0l0,20.299Z"/><path d="M457.853,236.579l-3.706,-0l0,-14.741l-3.705,0l5.558,-5.558l5.558,5.558l-3.705,0l-0,14.741Z"/><path d="M355.645,236.579l-3.706,-0l0,-14.741l-3.705,0l5.558,-5.558l5.558,5.558l-3.705,0l-0,14.741Z"/><rect x="175" y="232.873" width="177" height="3.705"/><rect x="366.7" y="232.873" width="88.5" height="3.705"/><g id="header7" serif:id="header"><rect x="116" y="152.28" width="14.73" height="64" style="fill:#ed4444;stroke:#000;stroke-width:2px;"/><g transform="matrix(6.12323e-17,-1,1,6.12323e-17,-284.142,362.92)"><text x="158.399px" y="411.731px" style="font-family:'ArialMT', 'Arial', sans-serif;font-size:12px;">Header</text></g></g><g id="header8" serif:id="header"><rect x="198" y="152.28" width="14.73" height="64" style="fill:#ed4444;stroke:#000;stroke-width:2px;"/><g transform="matrix(6.12323e-17,-1,1,6.12323e-17,-202.142,444.92)"><text x="240.399px" y="411.731px" style="font-family:'ArialMT', 'Arial', sans-serif;font-size:12px;">Header</text></g></g><g id="header9" serif:id="header"><rect x="164.594" y="152.28" width="14.73" height="64" style="fill:#edba44;stroke:#000;stroke-width:2px;"/><g transform="matrix(6.12323e-17,-1,1,6.12323e-17,-235.547,411.515)"><text x="214.335px" y="411.731px" style="font-family:'ArialMT', 'Arial', sans-serif;font-size:12px;">Free</text></g></g><g id="header10" serif:id="header"><rect x="276" y="152.28" width="14.73" height="64" style="fill:#ed4444;stroke:#000;stroke-width:2px;"/><g transform="matrix(6.12323e-17,-1,1,6.12323e-17,-124.142,522.92)"><text x="318.399px" y="411.731px" style="font-family:'ArialMT', 'Arial', sans-serif;font-size:12px;">Header</text></g></g><g id="header11" serif:id="header"><rect x="450" y="152.28" width="14.73" height="64" style="fill:#edba44;stroke:#000;stroke-width:2px;"/><g transform="matrix(6.12323e-17,-1,1,6.12323e-17,49.8585,696.92)"><text x="485.737px" y="411.731px" style="font-family:'ArialMT', 'Arial', sans-serif;font-size:12px;">Next Free</text></g></g><g id="header12" serif:id="header"><rect x="164.594" y="152.28" width="14.73" height="64" style="fill:#edba44;stroke:#000;stroke-width:2px;"/><g transform="matrix(6.12323e-17,-1,1,6.12323e-17,-235.547,411.515)"><text x="200.331px" y="411.731px" style="font-family:'ArialMT', 'Arial', sans-serif;font-size:12px;">Next Free</text></g></g></g><text x="158.039px" y="146.09px" style="font-family:'ArialMT', 'Arial', sans-serif;font-size:12px;">Head</text><g id="header13" serif:id="header"><rect x="352" y="152.28" width="14.7" height="64" style="fill:#edba44;stroke:#000;stroke-width:2px;"/><g transform="matrix(6.11066e-17,-1,1,6.13583e-17,-47.9842,599.078)"><text x="387.894px" y="411.55px" style="font-family:'ArialMT', 'Arial', sans-serif;font-size:11.975px;">Next Free</text></g></g><text x="27.109px" y="187.312px" style="font-family:'ArialMT', 'Arial', sans-serif;font-size:12px;">Memory Block</text><text x="457.082px" y="266.022px" style="font-family:'ArialMT', 'Arial', sans-serif;font-size:12px;">T<tspan x="463.082px 469.756px " y="266.022px 266.022px ">ai</tspan>l</text><g><rect x="291" y="152.28" width="60.939" height="64" style="fill:#ed4444;stroke:#000;stroke-width:2px;"/></g></g><g><g><rect x="117.878" y="280.943" width="468.122" height="64" style="fill:#44ed44;stroke:#000;stroke-width:2px;"/><rect x="212.73" y="280.943" width="62.913" height="64" style="fill:#ed4444;stroke:#000;stroke-width:2px;"/><rect x="116" y="280.943" width="48.594" height="64" style="fill:#ed4444;stroke:#000;stroke-width:2px;"/><path d="M363.055,344.163l3.706,-0l-0,35.442l3.705,-0l-5.558,5.558l-5.558,-5.558l3.705,-0l0,-35.442Z"/><path d="M178.705,365.242l-3.705,-0l0,-20.299l3.705,0l0,20.299Z"/><path d="M355.645,365.242l-3.706,-0l0,-14.741l-3.705,0l5.558,-5.558l5.558,5.558l-3.705,0l-0,14.741Z"/><rect x="175" y="361.536" width="177" height="3.705"/><g id="header14" serif:id="header"><rect x="116" y="280.943" width="14.73" height="64" style="fill:#ed4444;stroke:#000;stroke-width:2px;"/><g transform="matrix(6.12323e-17,-1,1,6.12323e-17,-412.805,491.583)"><text x="158.399px" y="540.394px" style="font-family:'ArialMT', 'Arial', sans-serif;font-size:12px;">Header</text></g></g><g id="header15" serif:id="header"><rect x="198" y="280.943" width="14.73" height="64" style="fill:#ed4444;stroke:#000;stroke-width:2px;"/><g transform="matrix(6.12323e-17,-1,1,6.12323e-17,-330.805,573.583)"><text x="240.399px" y="540.394px" style="font-family:'ArialMT', 'Arial', sans-serif;font-size:12px;">Header</text></g></g><g id="header16" serif:id="header"><rect x="164.594" y="280.943" width="14.73" height="64" style="fill:#edba44;stroke:#000;stroke-width:2px;"/><g transform="matrix(6.12323e-17,-1,1,6.12323e-17,-364.21,540.178)"><text x="214.335px" y="540.394px" style="font-family:'ArialMT', 'Arial', sans-serif;font-size:12px;">Free</text></g></g><g id="header17" serif:id="header"><rect x="276" y="280.943" width="14.73" height="64" style="fill:#ed4444;stroke:#000;stroke-width:2px;"/><g transform="matrix(6.12323e-17,-1,1,6.12323e-17,-252.805,651.583)"><text x="318.399px" y="540.394px" style="font-family:'ArialMT', 'Arial', sans-serif;font-size:12px;">Header</text></g></g><g id="header18" serif:id="header"><rect x="164.594" y="280.943" width="14.73" height="64" style="fill:#edba44;stroke:#000;stroke-width:2px;"/><g transform="matrix(6.12323e-17,-1,1,6.12323e-17,-364.21,540.178)"><text x="200.331px" y="540.394px" style="font-family:'ArialMT', 'Arial', sans-serif;font-size:12px;">Next Free</text></g></g></g><text x="158.039px" y="274.753px" style="font-family:'ArialMT', 'Arial', sans-serif;font-size:12px;">Head</text><g id="header19" serif:id="header"><rect x="352" y="280.943" width="14.7" height="64" style="fill:#edba44;stroke:#000;stroke-width:2px;"/><g transform="matrix(6.11066e-17,-1,1,6.13583e-17,-176.647,727.741)"><text x="387.894px" y="540.213px" style="font-family:'ArialMT', 'Arial', sans-serif;font-size:11.975px;">Next Free</text></g></g><text x="27.109px" y="315.975px" style="font-family:'ArialMT', 'Arial', sans-serif;font-size:12px;">Memory Block</text><text x="356.186px" y="394.685px" style="font-family:'ArialMT', 'Arial', sans-serif;font-size:12px;">T<tspan x="362.186px 368.86px " y="394.685px 394.685px ">ai</tspan>l</text><g><rect x="291" y="280.943" width="60.939" height="64" style="fill:#ed4444;stroke:#000;stroke-width:2px;"/></g><text x="408.697px" y="316.049px" style="font-family:'ArialMT', 'Arial', sans-serif;font-size:12px;">Newly Coalesced Block</text></g></svg>