<?xml version="1.0" encoding="UTF-8" standalone="no"?><!DOCTYPE svg PUBLIC "-//W3C//DTD SVG 1.1//EN" "http://www.w3.org/Graphics/SVG/1.1/DTD/svg11.dtd"><svg width="100%" height="100%" viewBox="0 0 600 275" version="1.1" xmlns="http://www.w3.org/2000/svg" xmlns:xlink="http://www.w3.org/1999/xlink" xml:space="preserve" xmlns:serif="http://www.serif.com/" style="fill-rule:evenodd;clip-rule:evenodd;stroke-linecap:round;stroke-linejoin:round;stroke-miterlimit:1.5;"><g><rect x="117.878" y="136.117" width="468.122" height="64" style="fill:#44ed44;stroke:#000;stroke-width:2px;"/><rect x="212.73" y="136.117" width="62.913" height="64" style="fill:#ed4444;stroke:#000;stroke-width:2px;"/><rect x="116" y="136.117" width="48.594" height="64" style="fill:#ed4444;stroke:#000;stroke-width:2px;"/><path d="M465.264,199.337l3.705,0l0,35.442l3.705,-0l-5.558,5.558l-5.558,-5.558l3.706,-0l-0,-35.442Z"/><path d="M173.959,64.558l3.6,-0.88l16.271,66.6l3.6,-0.879l-4.08,6.718l-6.719,-4.08l3.6,-0.879l-16.272,-66.6Z"/><path d="M140,33.983l1.853,-3.209l171.343,98.925l1.853,-3.209l2.035,7.593l-7.593,2.034l1.853,-3.209l-171.344,-98.925Z"/><path d="M164,37.018l0.959,-3.58l349.328,93.603l0.959,-3.58l3.93,6.808l-6.807,3.93l0.959,-3.579l-349.328,-93.602Z"/><path d="M283.411,220.416l-3.706,-0l0,-14.741l-3.705,0l5.558,-5.558l5.558,5.558l-3.705,0l-0,14.741Z"/><path d="M178.705,220.416l-3.705,-0l0,-20.299l3.705,0l0,20.299Z"/><rect x="175" y="216.71" width="106.558" height="3.705"/><path d="M457.853,220.416l-3.706,-0l0,-14.741l-3.705,0l5.558,-5.558l5.558,5.558l-3.705,0l-0,14.741Z"/><path d="M295.705,220.416l-3.705,-0l0,-20.299l3.705,0l0,20.299Z"/><rect x="292" y="216.71" width="164" height="3.705"/><g id="header"><rect x="116" y="136.117" width="14.73" height="64" style="fill:#ed4444;stroke:#000;stroke-width:2px;"/><g transform="matrix(6.12323e-17,-1,1,6.12323e-17,-267.979,346.757)"><text x="158.399px" y="395.568px" style="font-family:'ArialMT', 'Arial', sans-serif;font-size:12px;">Header</text></g></g><g id="header1" serif:id="header"><rect x="198" y="136.117" width="14.73" height="64" style="fill:#ed4444;stroke:#000;stroke-width:2px;"/><g transform="matrix(6.12323e-17,-1,1,6.12323e-17,-185.979,428.757)"><text x="240.399px" y="395.568px" style="font-family:'ArialMT', 'Arial', sans-serif;font-size:12px;">Header</text></g></g><g id="header2" serif:id="header"><rect x="164.594" y="136.117" width="14.73" height="64" style="fill:#edba44;stroke:#000;stroke-width:2px;"/><g transform="matrix(6.12323e-17,-1,1,6.12323e-17,-219.384,395.352)"><text x="214.335px" y="395.568px" style="font-family:'ArialMT', 'Arial', sans-serif;font-size:12px;">Free</text></g></g><g id="header3" serif:id="header"><rect x="276" y="136.117" width="14.73" height="64" style="fill:#edba44;stroke:#000;stroke-width:2px;"/><g transform="matrix(6.12323e-17,-1,1,6.12323e-17,-107.979,506.757)"><text x="311.737px" y="395.568px" style="font-family:'ArialMT', 'Arial', sans-serif;font-size:12px;">Next Free</text></g></g><g id="header4" serif:id="header"><rect x="450" y="136.117" width="14.73" height="64" style="fill:#edba44;stroke:#000;stroke-width:2px;"/><g transform="matrix(6.12323e-17,-1,1,6.12323e-17,66.0214,680.757)"><text x="485.737px" y="395.568px" style="font-family:'ArialMT', 'Arial', sans-serif;font-size:12px;">Next Free</text></g></g><g id="header5" serif:id="header"><rect x="164.594" y="136.117" width="14.73" height="64" style="fill:#edba44;stroke:#000;stroke-width:2px;"/><g transform="matrix(6.12323e-17,-1,1,6.12323e-17,-219.384,395.352)"><text x="200.331px" y="395.568px" style="font-family:'ArialMT', 'Arial', sans-serif;font-size:12px;">Next Free</text></g></g></g><text x="158.039px" y="129.927px" style="font-family:'ArialMT', 'Arial', sans-serif;font-size:12px;">Head</text><rect x="352" y="136.117" width="98" height="64" style="fill:#ed4444;stroke:#000;stroke-width:2px;"/><g id="header6" serif:id="header"><rect x="352" y="136.117" width="14.7" height="64" style="fill:#ed4444;stroke:#000;stroke-width:2px;"/><g transform="matrix(6.11066e-17,-1,1,6.13583e-17,-31.8212,582.915)"><text x="394.556px" y="395.387px" style="font-family:'ArialMT', 'Arial', sans-serif;font-size:11.975px;">Header</text></g></g><g><rect x="117.878" y="12" width="60.939" height="64" style="fill:#ed4444;stroke:#000;stroke-width:2px;"/><g transform="matrix(1,0,0,1,133.014,-23.4861)"><text x="3.753px" y="65.514px" style="font-family:'ArialMT', 'Arial', sans-serif;font-size:12px;">New</text><text x="-10.26px" y="77.907px" style="font-family:'ArialMT', 'Arial', sans-serif;font-size:12px;">Allocation</text></g></g><text x="27.109px" y="171.149px" style="font-family:'ArialMT', 'Arial', sans-serif;font-size:12px;">Memory Block</text><text x="457.082px" y="249.859px" style="font-family:'ArialMT', 'Arial', sans-serif;font-size:12px;">T<tspan x="463.082px 469.756px " y="249.859px 249.859px ">ai</tspan>l</text></svg>