<?xml version="1.0" encoding="UTF-8" standalone="no"?><!DOCTYPE svg PUBLIC "-//W3C//DTD SVG 1.1//EN" "http://www.w3.org/Graphics/SVG/1.1/DTD/svg11.dtd"><svg width="100%" height="100%" viewBox="0 0 600 150" version="1.1" xmlns="http://www.w3.org/2000/svg" xmlns:xlink="http://www.w3.org/1999/xlink" xml:space="preserve" xmlns:serif="http://www.serif.com/" style="fill-rule:evenodd;clip-rule:evenodd;stroke-linecap:round;stroke-linejoin:round;stroke-miterlimit:1.5;"><g><rect x="117.878" y="28.78" width="468.122" height="64" style="fill:#44ed44;stroke:#000;stroke-width:2px;"/><rect x="212.73" y="28.78" width="62.913" height="64" style="fill:#ed4444;stroke:#000;stroke-width:2px;"/><rect x="116" y="28.78" width="48.594" height="64" style="fill:#ed4444;stroke:#000;stroke-width:2px;"/><path d="M465.264,92l3.705,0l0,35.442l3.705,-0l-5.558,5.558l-5.558,-5.558l3.706,-0l-0,-35.442Z"/><path d="M117.411,133.78l-3.706,0l0,-35.442l-3.705,0l5.558,-5.558l5.558,5.558l-3.705,0l-0,35.442Z"/><path d="M283.411,113.079l-3.706,-0l0,-14.741l-3.705,0l5.558,-5.558l5.558,5.558l-3.705,0l-0,14.741Z"/><path d="M178.705,113.079l-3.705,-0l0,-20.299l3.705,0l0,20.299Z"/><rect x="175" y="109.373" width="106.558" height="3.705"/><path d="M457.853,113.079l-3.706,-0l0,-14.741l-3.705,0l5.558,-5.558l5.558,5.558l-3.705,0l-0,14.741Z"/><path d="M295.705,113.079l-3.705,-0l0,-20.299l3.705,0l0,20.299Z"/><rect x="292" y="109.373" width="164" height="3.705"/><g id="header"><rect x="116" y="28.78" width="14.73" height="64" style="fill:#ed4444;stroke:#000;stroke-width:2px;"/><g transform="matrix(6.12323e-17,-1,1,6.12323e-17,-160.642,239.42)"><text x="158.399px" y="288.231px" style="font-family:'ArialMT', 'Arial', sans-serif;font-size:12px;">Header</text></g></g><g id="header1" serif:id="header"><rect x="198" y="28.78" width="14.73" height="64" style="fill:#ed4444;stroke:#000;stroke-width:2px;"/><g transform="matrix(6.12323e-17,-1,1,6.12323e-17,-78.6415,321.42)"><text x="240.399px" y="288.231px" style="font-family:'ArialMT', 'Arial', sans-serif;font-size:12px;">Header</text></g></g><g id="header2" serif:id="header"><rect x="164.594" y="28.78" width="14.73" height="64" style="fill:#edba44;stroke:#000;stroke-width:2px;"/><g transform="matrix(6.12323e-17,-1,1,6.12323e-17,-112.047,288.015)"><text x="214.335px" y="288.231px" style="font-family:'ArialMT', 'Arial', sans-serif;font-size:12px;">Free</text></g></g><g id="header3" serif:id="header"><rect x="276" y="28.78" width="14.73" height="64" style="fill:#edba44;stroke:#000;stroke-width:2px;"/><g transform="matrix(6.12323e-17,-1,1,6.12323e-17,-0.641543,399.42)"><text x="311.737px" y="288.231px" style="font-family:'ArialMT', 'Arial', sans-serif;font-size:12px;">Next Free</text></g></g><g id="header4" serif:id="header"><rect x="450" y="28.78" width="14.73" height="64" style="fill:#edba44;stroke:#000;stroke-width:2px;"/><g transform="matrix(6.12323e-17,-1,1,6.12323e-17,173.358,573.42)"><text x="485.737px" y="288.231px" style="font-family:'ArialMT', 'Arial', sans-serif;font-size:12px;">Next Free</text></g></g><g id="header5" serif:id="header"><rect x="164.594" y="28.78" width="14.73" height="64" style="fill:#edba44;stroke:#000;stroke-width:2px;"/><g transform="matrix(6.12323e-17,-1,1,6.12323e-17,-112.047,288.015)"><text x="200.331px" y="288.231px" style="font-family:'ArialMT', 'Arial', sans-serif;font-size:12px;">Next Free</text></g></g></g><text x="158.039px" y="22.59px" style="font-family:'ArialMT', 'Arial', sans-serif;font-size:12px;">Head</text><rect x="352" y="28.78" width="98" height="64" style="fill:#ed4444;stroke:#000;stroke-width:2px;"/><g id="header6" serif:id="header"><rect x="352" y="28.78" width="14.7" height="64" style="fill:#ed4444;stroke:#000;stroke-width:2px;"/><g transform="matrix(6.11066e-17,-1,1,6.13583e-17,75.5158,475.578)"><text x="394.556px" y="288.05px" style="font-family:'ArialMT', 'Arial', sans-serif;font-size:11.975px;">Header</text></g></g><text x="27.109px" y="63.812px" style="font-family:'ArialMT', 'Arial', sans-serif;font-size:12px;">Memory Block</text><text x="102.537px" y="142.516px" style="font-family:'ArialMT', 'Arial', sans-serif;font-size:12px;">Start</text><text x="174.074px" y="127.59px" style="font-family:'ArialMT', 'Arial', sans-serif;font-size:12px;">Pointer</text><text x="291.074px" y="127.59px" style="font-family:'ArialMT', 'Arial', sans-serif;font-size:12px;">Pointer</text><text x="291.074px" y="127.59px" style="font-family:'ArialMT', 'Arial', sans-serif;font-size:12px;">Pointer</text><text x="457.082px" y="142.522px" style="font-family:'ArialMT', 'Arial', sans-serif;font-size:12px;">T<tspan x="463.082px 469.756px " y="142.522px 142.522px ">ai</tspan>l</text></svg>