<?xml version="1.0" encoding="UTF-8" standalone="no"?><!DOCTYPE svg PUBLIC "-//W3C//DTD SVG 1.1//EN" "http://www.w3.org/Graphics/SVG/1.1/DTD/svg11.dtd"><svg width="500" height="150" viewBox="0 0 500 150" version="1.1" xmlns="http://www.w3.org/2000/svg" xmlns:xlink="http://www.w3.org/1999/xlink" xml:space="preserve" xmlns:serif="http://www.serif.com/" style="fill-rule:evenodd;clip-rule:evenodd;stroke-linecap:round;stroke-linejoin:round;stroke-miterlimit:1.5;"><g><path d="M116.698,118.337l-3.705,0l0,-40.882l-3.705,0l5.558,-5.558l5.558,5.558l-3.706,0l0,40.882Z"/><rect x="116.724" y="7.897" width="360" height="64" style="fill:#44ed44;stroke:#000;stroke-width:2px;"/><rect x="163.44" y="7.897" width="77.643" height="64" style="fill:#ed4444;stroke:#000;stroke-width:2px;"/><rect x="241.083" y="7.897" width="77.643" height="64" style="fill:#ed4444;stroke:#000;stroke-width:2px;"/><rect x="114.846" y="7.897" width="48.594" height="64" style="fill:#ed4444;stroke:#000;stroke-width:2px;"/><text x="22.385px" y="42.929px" style="font-family:'ArialMT', 'Arial', sans-serif;font-size:12px;">Memory Block</text><path d="M320.555,118.337l-3.705,0l0,-40.882l-3.706,0l5.559,-5.558l5.558,5.558l-3.706,0l0,40.882Z"/><text x="101.949px" y="131.392px" style="font-family:'ArialMT', 'Arial', sans-serif;font-size:12px;">Start</text><g transform="matrix(1,0,0,1,200.509,-29.5448)"><text x="97.956px" y="159.109px" style="font-family:'ArialMT', 'Arial', sans-serif;font-size:12px;">Current</text><text x="102.087px" y="171.501px" style="font-family:'ArialMT', 'Arial', sans-serif;font-size:12px;">Oﬀset</text></g></g><g transform="matrix(1,0,0,1,17.2114,1.35203)"><text x="251.112px" y="36.573px" style="font-family:'ArialMT', 'Arial', sans-serif;font-size:12px;">New</text><text x="237.099px" y="48.966px" style="font-family:'ArialMT', 'Arial', sans-serif;font-size:12px;">Allocation</text></g></svg>
