<?xml version="1.0" encoding="UTF-8" standalone="no"?><!DOCTYPE svg PUBLIC "-//W3C//DTD SVG 1.1//EN" "http://www.w3.org/Graphics/SVG/1.1/DTD/svg11.dtd"><svg width="400" height="150" viewBox="0 0 400 150" version="1.1" xmlns="http://www.w3.org/2000/svg" xmlns:xlink="http://www.w3.org/1999/xlink" xml:space="preserve" xmlns:serif="http://www.serif.com/" style="fill-rule:evenodd;clip-rule:evenodd;stroke-linecap:round;stroke-linejoin:round;stroke-miterlimit:1.5;"><g><rect x="20" y="4.508" width="60" height="64" style="fill:#44ed44;stroke:#000;stroke-width:2px;"/><text x="19.039px" y="86.025px" style="font-family:'ArialMT', 'Arial', sans-serif;font-size:12px;">Head</text><rect x="80" y="4.508" width="60" height="64" style="fill:#44ed44;stroke:#000;stroke-width:2px;"/><rect x="200" y="4.508" width="60" height="64" style="fill:#44ed44;stroke:#000;stroke-width:2px;"/><rect x="260" y="4.508" width="60" height="64" style="fill:#44ed44;stroke:#000;stroke-width:2px;"/><rect x="320" y="4.508" width="60" height="64" style="fill:#44ed44;stroke:#000;stroke-width:2px;"/><rect x="140" y="4.508" width="60" height="64" style="fill:#44ed44;stroke:#000;stroke-width:2px;"/></g><g><path d="M47.402,119.427l0,-3.706l27.04,0l0,-3.705l5.558,5.558l-5.558,5.558l0,-3.705l-27.04,0Z"/><rect x="20" y="89.656" width="27.402" height="55.836" style="fill:#44ed44;stroke:#000;stroke-width:2px;"/><rect x="33.701" y="89.656" width="13.701" height="55.836" style="fill:#44cded;stroke:#000;stroke-width:2px;"/><g transform="matrix(6.12323e-17,-1,1,6.12323e-17,-271.542,197.656)"><text x="67.332px" y="316.318px" style="font-family:'ArialMT', 'Arial', sans-serif;font-size:12px;">Next</text></g></g><g><path d="M107.402,119.427l0,-3.706l27.04,0l0,-3.705l5.558,5.558l-5.558,5.558l0,-3.705l-27.04,0Z"/><rect x="80" y="89.656" width="27.402" height="55.836" style="fill:#44ed44;stroke:#000;stroke-width:2px;"/><rect x="93.701" y="89.656" width="13.701" height="55.836" style="fill:#44cded;stroke:#000;stroke-width:2px;"/><g transform="matrix(6.12323e-17,-1,1,6.12323e-17,-211.542,257.656)"><text x="127.332px" y="316.318px" style="font-family:'ArialMT', 'Arial', sans-serif;font-size:12px;">Next</text></g></g><g><path d="M167.402,119.427l0,-3.706l27.04,0l0,-3.705l5.558,5.558l-5.558,5.558l0,-3.705l-27.04,0Z"/><rect x="140" y="89.656" width="27.402" height="55.836" style="fill:#44ed44;stroke:#000;stroke-width:2px;"/><rect x="153.701" y="89.656" width="13.701" height="55.836" style="fill:#44cded;stroke:#000;stroke-width:2px;"/><g transform="matrix(6.12323e-17,-1,1,6.12323e-17,-151.542,317.656)"><text x="187.332px" y="316.318px" style="font-family:'ArialMT', 'Arial', sans-serif;font-size:12px;">Next</text></g></g><g><path d="M227.402,119.427l0,-3.706l27.04,0l0,-3.705l5.558,5.558l-5.558,5.558l0,-3.705l-27.04,0Z"/><rect x="200" y="89.656" width="27.402" height="55.836" style="fill:#44ed44;stroke:#000;stroke-width:2px;"/><rect x="213.701" y="89.656" width="13.701" height="55.836" style="fill:#44cded;stroke:#000;stroke-width:2px;"/><g transform="matrix(6.12323e-17,-1,1,6.12323e-17,-91.542,377.656)"><text x="247.332px" y="316.318px" style="font-family:'ArialMT', 'Arial', sans-serif;font-size:12px;">Next</text></g></g><g><path d="M287.402,119.427l0,-3.706l27.04,0l0,-3.705l5.558,5.558l-5.558,5.558l0,-3.705l-27.04,0Z"/><rect x="260" y="89.656" width="27.402" height="55.836" style="fill:#44ed44;stroke:#000;stroke-width:2px;"/><rect x="273.701" y="89.656" width="13.701" height="55.836" style="fill:#44cded;stroke:#000;stroke-width:2px;"/><g transform="matrix(6.12323e-17,-1,1,6.12323e-17,-31.542,437.656)"><text x="307.332px" y="316.318px" style="font-family:'ArialMT', 'Arial', sans-serif;font-size:12px;">Next</text></g></g><g><path d="M347.402,119.427l0,-3.706l27.04,0l0,-3.705l5.558,5.558l-5.558,5.558l0,-3.705l-27.04,0Z"/><rect x="320" y="89.656" width="27.402" height="55.836" style="fill:#44ed44;stroke:#000;stroke-width:2px;"/><rect x="333.701" y="89.656" width="13.701" height="55.836" style="fill:#44cded;stroke:#000;stroke-width:2px;"/><g transform="matrix(6.12323e-17,-1,1,6.12323e-17,28.458,497.656)"><text x="367.332px" y="316.318px" style="font-family:'ArialMT', 'Arial', sans-serif;font-size:12px;">Next</text></g></g></svg>
