<?xml version="1.0" encoding="UTF-8" standalone="no"?><!DOCTYPE svg PUBLIC "-//W3C//DTD SVG 1.1//EN" "http://www.w3.org/Graphics/SVG/1.1/DTD/svg11.dtd"><svg width="400" height="150" viewBox="0 0 400 150" version="1.1" xmlns="http://www.w3.org/2000/svg" xmlns:xlink="http://www.w3.org/1999/xlink" xml:space="preserve" xmlns:serif="http://www.serif.com/" style="fill-rule:evenodd;clip-rule:evenodd;stroke-linecap:round;stroke-linejoin:round;stroke-miterlimit:1.5;"><g><rect x="20" y="34.171" width="60" height="64" style="fill:#ed4444;stroke:#000;stroke-width:2px;"/><text x="199.039px" y="30.089px" style="font-family:'ArialMT', 'Arial', sans-serif;font-size:12px;">Head</text><rect x="80" y="34.171" width="60" height="64" style="fill:#44ed44;stroke:#000;stroke-width:2px;"/><rect x="200" y="34.171" width="60" height="64" style="fill:#44ed44;stroke:#000;stroke-width:2px;"/><rect x="260" y="34.171" width="60" height="64" style="fill:#44ed44;stroke:#000;stroke-width:2px;"/><rect x="320" y="34.171" width="60" height="64" style="fill:#ed4444;stroke:#000;stroke-width:2px;"/><rect x="140" y="34.171" width="60" height="64" style="fill:#ed4444;stroke:#000;stroke-width:2px;"/></g><g><rect x="93.701" y="64.048" width="21.599" height="4.247"/><rect x="80" y="34.171" width="13.701" height="64" style="fill:#44cded;stroke:#000;stroke-width:2px;"/><g transform="matrix(5.34217e-17,-1,1,7.01849e-17,-190.95,209.662)"><text x="128.877px" y="282.025px" style="font-family:'ArialMT', 'Arial', sans-serif;font-size:12px;">N<tspan x="138.81px 146.459px 153.337px " y="282.025px 282.025px 282.025px ">ext</tspan></text></g></g><g><rect x="260" y="34.171" width="13.701" height="64" style="fill:#44cded;stroke:#000;stroke-width:2px;"/><g transform="matrix(5.34217e-17,-1,1,7.01849e-17,-10.95,389.662)"><text x="308.877px" y="282.025px" style="font-family:'ArialMT', 'Arial', sans-serif;font-size:12px;">N<tspan x="318.81px 326.459px 333.337px " y="282.025px 282.025px 282.025px ">ext</tspan></text></g></g><g><rect x="200" y="34.171" width="13.701" height="64" style="fill:#44cded;stroke:#000;stroke-width:2px;"/><g transform="matrix(5.34217e-17,-1,1,7.01849e-17,-70.95,329.662)"><text x="248.877px" y="282.025px" style="font-family:'ArialMT', 'Arial', sans-serif;font-size:12px;">N<tspan x="258.81px 266.459px 273.337px " y="282.025px 282.025px 282.025px ">ext</tspan></text></g></g><g><rect x="273.701" y="64.048" width="24.792" height="4.247"/><path d="M298.494,66.171l-4.247,0l0,-47.629l-4.247,0l6.371,-6.371l6.371,6.371l-4.248,0l0,47.629Z"/><rect x="320" y="34.171" width="13.701" height="64" style="fill:#44cded;stroke:#000;stroke-width:2px;"/><g transform="matrix(5.34217e-17,-1,1,7.01849e-17,49.05,449.662)"><text x="368.877px" y="282.025px" style="font-family:'ArialMT', 'Arial', sans-serif;font-size:12px;">N<tspan x="378.81px 386.459px 393.337px " y="282.025px 282.025px 282.025px ">ext</tspan></text></g></g><rect x="213.701" y="64.048" width="22.31" height="4.247"/><path d="M239.647,68.295l0,-4.247l13.982,0l0,-4.248l6.371,6.371l-6.371,6.371l0,-4.247l-13.982,0Z"/><path d="M59.647,68.295l0,-4.247l13.982,0l0,-4.248l6.371,6.371l-6.371,6.371l0,-4.247l-13.982,0Z"/><path d="M243.894,120.171l-4.247,0l0,-54l4.247,0l0,54Z"/><path d="M236.011,66.171l-4.248,0l0,-54l4.248,0l0,54Z"/><path d="M115.3,120.171l-4.247,0l0,-54l4.247,0l0,54Z"/><rect x="111.053" y="115.924" width="132.64" height="4.247"/><path d="M63.894,66.171l-4.247,0l0,-54l4.247,0l0,54Z"/><rect x="59.647" y="10.048" width="176.364" height="4.247"/></svg>
