<?xml version="1.0" encoding="UTF-8" standalone="no"?><!DOCTYPE svg PUBLIC "-//W3C//DTD SVG 1.1//EN" "http://www.w3.org/Graphics/SVG/1.1/DTD/svg11.dtd"><svg width="500" height="150" viewBox="0 0 500 150" version="1.1" xmlns="http://www.w3.org/2000/svg" xmlns:xlink="http://www.w3.org/1999/xlink" xml:space="preserve" xmlns:serif="http://www.serif.com/" style="fill-rule:evenodd;clip-rule:evenodd;stroke-linecap:round;stroke-linejoin:round;stroke-miterlimit:1.5;"><g><path d="M117.573,116.234l-3.705,0l0,-40.881l-3.706,0l5.558,-5.559l5.559,5.559l-3.706,0l0,40.881Z"/><path d="M183.131,82.411l3.706,3.705l-5.558,0l-5.559,-5.558l5.559,-5.558l5.558,0l-3.706,3.705l45.179,0l-3.706,-3.705l5.558,0l5.558,5.558l-5.558,5.558l-5.558,0l3.706,-3.705l-45.179,0Z"/><rect x="115.72" y="5.311" width="60" height="64" style="fill:#44ed44;stroke:#000;stroke-width:2px;"/><rect x="175.72" y="5.311" width="60" height="64" style="fill:#44ed44;stroke:#000;stroke-width:2px;"/><rect x="295.72" y="5.311" width="60" height="64" style="fill:#44ed44;stroke:#000;stroke-width:2px;"/><rect x="355.72" y="5.311" width="60" height="64" style="fill:#44ed44;stroke:#000;stroke-width:2px;"/><rect x="415.72" y="5.311" width="60" height="64" style="fill:#44ed44;stroke:#000;stroke-width:2px;"/><rect x="235.72" y="5.311" width="60" height="64" style="fill:#44ed44;stroke:#000;stroke-width:2px;"/><text x="23.26px" y="40.827px" style="font-family:'ArialMT', 'Arial', sans-serif;font-size:12px;">Memory Block</text><text x="102.824px" y="129.289px" style="font-family:'ArialMT', 'Arial', sans-serif;font-size:12px;">Start</text><g transform="matrix(1,0,0,1,87.5322,-64.2559)"><text x="100.619px" y="159.109px" style="font-family:'ArialMT', 'Arial', sans-serif;font-size:12px;">Chunk</text><text x="106.291px" y="171.501px" style="font-family:'ArialMT', 'Arial', sans-serif;font-size:12px;">Size</text></g><g transform="matrix(1,0,0,1,271.227,-44.5909)"><text x="62.77px" y="159.109px" style="font-family:'ArialMT', 'Arial', sans-serif;font-size:12px;">Number of Chunks =</text><text x="30.933px" y="171.501px" style="font-family:'ArialMT', 'Arial', sans-serif;font-size:12px;">Memory Block Size / Chunk Size</text></g></g></svg>
