<?xml version="1.0" encoding="UTF-8" standalone="no"?><!DOCTYPE svg PUBLIC "-//W3C//DTD SVG 1.1//EN" "http://www.w3.org/Graphics/SVG/1.1/DTD/svg11.dtd"><svg width="250" height="150" viewBox="0 0 250 150" version="1.1" xmlns="http://www.w3.org/2000/svg" xmlns:xlink="http://www.w3.org/1999/xlink" xml:space="preserve" xmlns:serif="http://www.serif.com/" style="fill-rule:evenodd;clip-rule:evenodd;stroke-linecap:round;stroke-linejoin:round;stroke-miterlimit:1.5;"><rect x="-12.609" y="5.888" width="78.482" height="64" style="fill:#ed4444;stroke:#000;stroke-width:2px;"/><rect x="65.873" y="5.888" width="58.483" height="64" style="fill:#ed9444;stroke:#000;stroke-width:2px;"/><rect x="124.356" y="5.888" width="14.73" height="64" style="fill:#ed4444;stroke:#000;stroke-width:2px;"/><rect x="139.338" y="5.888" width="82.373" height="64" style="fill:#ed4444;stroke:#000;stroke-width:2px;"/><g transform="matrix(6.12323e-17,-1,1,6.12323e-17,-129.393,224.885)"><text x="166.755px" y="265.339px" style="font-family:'ArialMT', 'Arial', sans-serif;font-size:12px;">Header</text></g><path d="M67.726,116.328l-3.705,0l0,-40.882l-3.706,0l5.558,-5.558l5.558,5.558l-3.705,0l0,40.882Z"/><g transform="matrix(1,0,0,1,-52.3443,-27.5356)"><text x="94.619px" y="159.109px" style="font-family:'ArialMT', 'Arial', sans-serif;font-size:12px;">Previous</text><text x="102.087px" y="171.501px" style="font-family:'ArialMT', 'Arial', sans-serif;font-size:12px;">Oﬀset</text></g><text x="73.034px" y="40.92px" style="font-family:'ArialMT', 'Arial', sans-serif;font-size:12px;">Padding</text><rect x="221.808" y="5.888" width="61.649" height="64" style="fill:#44ed44;stroke:#000;stroke-width:2px;"/><g transform="matrix(1,0,0,1,27.893,4.48495)"><text x="141.05px" y="31.431px" style="font-family:'ArialMT', 'Arial', sans-serif;font-size:12px;">New</text><text x="127.038px" y="43.824px" style="font-family:'ArialMT', 'Arial', sans-serif;font-size:12px;">Allocation</text></g><g transform="matrix(1,0,0,1,-119.759,4.46745)"><text x="143.716px" y="31.431px" style="font-family:'ArialMT', 'Arial', sans-serif;font-size:12px;">Old</text><text x="127.038px" y="43.824px" style="font-family:'ArialMT', 'Arial', sans-serif;font-size:12px;">Allocation</text></g><path d="M223.661,116.328l-3.706,0l0,-40.882l-3.705,0l5.558,-5.558l5.558,5.558l-3.705,0l0,40.882Z"/><g transform="matrix(1,0,0,1,103.614,-27.5356)"><text x="97.956px" y="159.109px" style="font-family:'ArialMT', 'Arial', sans-serif;font-size:12px;">Current</text><text x="102.087px" y="171.501px" style="font-family:'ArialMT', 'Arial', sans-serif;font-size:12px;">Oﬀset</text></g></svg>
