<?xml version="1.0" encoding="UTF-8" standalone="no"?><!DOCTYPE svg PUBLIC "-//W3C//DTD SVG 1.1//EN" "http://www.w3.org/Graphics/SVG/1.1/DTD/svg11.dtd"><svg width="500" height="150" viewBox="0 0 500 150" version="1.1" xmlns="http://www.w3.org/2000/svg" xmlns:xlink="http://www.w3.org/1999/xlink" xml:space="preserve" xmlns:serif="http://www.serif.com/" style="fill-rule:evenodd;clip-rule:evenodd;stroke-linecap:round;stroke-linejoin:round;stroke-miterlimit:1.5;"><g><path d="M117.573,116.234l-3.705,0l0,-40.881l-3.706,0l5.558,-5.559l5.559,5.559l-3.706,0l0,40.881Z"/><rect x="117.599" y="5.794" width="360" height="64" style="fill:#44ed44;stroke:#000;stroke-width:2px;"/><rect x="164.315" y="5.794" width="77.643" height="64" style="fill:#ed4444;stroke:#000;stroke-width:2px;"/><rect x="256.688" y="5.794" width="62.913" height="64" style="fill:#ed4444;stroke:#000;stroke-width:2px;"/><g transform="matrix(1,0,0,1,170.604,-123.289)"><text x="105.96px" y="159.109px" style="font-family:'ArialMT', 'Arial', sans-serif;font-size:12px;">New</text><text x="91.947px" y="171.501px" style="font-family:'ArialMT', 'Arial', sans-serif;font-size:12px;">Allocation</text></g><rect x="115.72" y="5.794" width="48.594" height="64" style="fill:#ed4444;stroke:#000;stroke-width:2px;"/><text x="23.26px" y="40.827px" style="font-family:'ArialMT', 'Arial', sans-serif;font-size:12px;">Memory Block</text><path d="M321.43,116.234l-3.705,0l0,-40.881l-3.706,0l5.558,-5.559l5.558,5.559l-3.705,0l0,40.881Z"/><path d="M258.541,116.234l-3.706,0l0,-40.881l-3.705,0l5.558,-5.559l5.558,5.559l-3.705,0l0,40.881Z"/><path d="M243.792,90.093l-3.705,0l0,-20.299l3.705,0l0,20.299Z"/><path d="M243.792,86.414l0,3.706l-40.881,0l0,3.705l-5.559,-5.558l5.559,-5.558l0,3.705l40.881,0Z"/><text x="102.824px" y="129.289px" style="font-family:'ArialMT', 'Arial', sans-serif;font-size:12px;">Start</text><g transform="matrix(1,0,0,1,201.383,-31.6476)"><text x="97.956px" y="159.109px" style="font-family:'ArialMT', 'Arial', sans-serif;font-size:12px;">Current</text><text x="102.087px" y="171.501px" style="font-family:'ArialMT', 'Arial', sans-serif;font-size:12px;">Oﬀset</text></g><g transform="matrix(1,0,0,1,138.47,-31.6476)"><text x="91.947px" y="159.109px" style="font-family:'ArialMT', 'Arial', sans-serif;font-size:12px;">Allocation</text><text x="81.409px" y="171.501px" style="font-family:'ArialMT', 'Arial', sans-serif;font-size:12px;">Oﬀset/Pointer</text></g><g id="header"><rect x="115.72" y="5.794" width="14.73" height="64" style="fill:#ed4444;stroke:#000;stroke-width:2px;"/><g transform="matrix(6.12323e-17,-1,1,6.12323e-17,-137.935,216.155)"><text x="158.119px" y="265.246px" style="font-family:'ArialMT', 'Arial', sans-serif;font-size:12px;">Header</text></g></g><g id="header1" serif:id="header"><rect x="164.315" y="5.794" width="14.73" height="64" style="fill:#ed4444;stroke:#000;stroke-width:2px;"/><g transform="matrix(6.12323e-17,-1,1,6.12323e-17,-89.3411,264.749)"><text x="206.714px" y="265.246px" style="font-family:'ArialMT', 'Arial', sans-serif;font-size:12px;">Header</text></g></g><g id="header2" serif:id="header"><rect x="241.958" y="5.794" width="14.73" height="64" style="fill:#ed4444;stroke:#000;stroke-width:2px;"/><g transform="matrix(6.12323e-17,-1,1,6.12323e-17,-11.698,342.392)"><text x="284.357px" y="265.246px" style="font-family:'ArialMT', 'Arial', sans-serif;font-size:12px;">Header</text></g></g></g><g transform="matrix(1,0,0,1,59.5469,-72.8133)"><text x="103.619px" y="159.109px" style="font-family:'ArialMT', 'Arial', sans-serif;font-size:12px;">Read</text><text x="98.284px" y="171.501px" style="font-family:'ArialMT', 'Arial', sans-serif;font-size:12px;">Header</text></g></svg>
