<?xml version="1.0" standalone="no"?>
<!DOCTYPE svg PUBLIC "-//W3C//DTD SVG 20010904//EN"
 "http://www.w3.org/TR/2001/REC-SVG-20010904/DTD/svg10.dtd">
<svg version="1.0" xmlns="http://www.w3.org/2000/svg"
 width="700.000000pt" height="700.000000pt" viewBox="0 0 700.000000 700.000000"
 preserveAspectRatio="xMidYMid meet">
<metadata>
Created by potrace 1.11, written by Peter Selinger 2001-2013
</metadata>
<g transform="translate(0.000000,700.000000) scale(0.100000,-0.100000)"
fill="#000000" stroke="none">
<path d="M3711 6140 c-5 -4 -8 -4269 -2 -4303 1 -10 1788 -3 1846 7 22 4 72
12 110 18 39 5 79 12 90 15 11 2 34 7 50 9 17 3 59 15 95 26 525 160 814 494
857 987 10 124 4 326 -12 374 -2 6 -6 28 -9 47 -16 111 -90 280 -174 399 -44
63 -196 221 -213 221 -4 0 -14 6 -21 13 -62 59 -273 157 -408 188 l-55 13 35
9 c97 25 148 41 175 53 17 7 43 18 59 24 17 6 59 31 95 55 235 157 354 415
354 770 0 169 -16 274 -64 403 -120 329 -437 561 -869 637 -87 15 -114 18
-235 31 -78 8 -1693 12 -1704 4z m1629 -485 c120 -15 153 -22 230 -46 172 -52
303 -157 364 -290 46 -101 59 -165 60 -289 1 -116 -6 -172 -27 -240 -44 -136
-103 -216 -217 -289 -92 -59 -204 -99 -330 -116 -25 -3 -58 -8 -75 -12 -16 -3
-261 -7 -542 -7 l-513 -2 -2 644 c-2 353 0 646 4 650 10 10 975 7 1048 -3z
m140 -1782 c227 -34 389 -111 507 -242 28 -32 118 -188 116 -201 0 -3 1 -9 3
-15 57 -189 54 -457 -8 -640 -56 -168 -193 -314 -358 -379 -41 -17 -161 -54
-178 -55 -15 -2 -68 -11 -97 -18 -16 -3 -288 -8 -602 -10 l-573 -4 0 791 0
791 548 -2 c414 -1 570 -5 642 -16z"/>
<path d="M1554 5134 c-423 -50 -757 -296 -963 -710 -131 -262 -194 -565 -195
-934 -1 -569 150 -996 464 -1310 116 -117 188 -169 312 -229 178 -85 314 -115
533 -115 172 -1 238 5 355 34 132 32 258 87 370 163 69 47 220 204 274 285 26
39 49 72 50 72 5 0 -2 -402 -8 -456 -45 -376 -186 -621 -436 -762 -172 -96
-365 -135 -645 -128 -292 7 -490 57 -773 192 -51 24 -96 42 -100 40 -11 -7 -8
-494 3 -504 29 -27 312 -102 495 -131 196 -31 222 -33 455 -36 214 -3 300 3
466 30 151 25 349 101 490 187 98 60 253 210 317 308 125 189 219 466 247 730
4 36 9 79 12 95 3 17 7 722 8 1567 2 1406 1 1538 -14 1542 -9 2 -128 4 -266 3
l-250 -2 0 -237 c0 -131 -2 -238 -5 -238 -3 0 -18 21 -34 48 -28 44 -151 194
-178 217 -134 111 -210 159 -336 207 -42 17 -83 31 -91 33 -9 2 -49 11 -89 19
-137 30 -319 37 -468 20z m531 -464 c168 -45 301 -129 410 -261 79 -95 160
-263 200 -416 58 -223 77 -595 40 -813 -2 -14 -6 -42 -9 -62 -47 -315 -217
-598 -436 -729 -191 -113 -464 -144 -698 -79 -326 91 -549 383 -618 809 -3 18
-8 43 -10 55 -22 107 -22 572 1 639 2 6 6 28 9 47 11 74 39 179 72 268 123
327 361 525 679 565 83 11 283 -2 360 -23z"/>
</g>
</svg>
